STARTFONT 2.1
COMMENT Created by fdbbdf
FONT times16
SIZE 16 78 78
FONTBOUNDINGBOX 19 18 -1 -5
STARTPROPERTIES 4
Ownership "  Copyright (c) 1984 Adobe Systems, Inc.  /adobe/fonttools/stdfontvec.ps TM18.bits  GUIDELINES -4 0 9 13 DONE  WIDTHERR -31 -98  "
FONT_ASCENT 13
FONT_DESCENT 5
DEFAULT_CHAR 32
ENDPROPERTIES
CHARS 95
STARTCHAR sp
ENCODING -1 32
SWIDTH 0 0
DWIDTH 5 0
BBX 0 0 0 0
BITMAP
ENDCHAR
STARTCHAR !
ENCODING -1 33
SWIDTH 0 0
DWIDTH 4 0
BBX 2 13 1 -1
BITMAP
c000
c000
c000
c000
c000
c000
c000
c000
8000
0000
0000
c000
c000
ENDCHAR
STARTCHAR "
ENCODING -1 34
SWIDTH 0 0
DWIDTH 8 0
BBX 6 4 1 8
BITMAP
cc00
cc00
cc00
8800
ENDCHAR
STARTCHAR #
ENCODING -1 35
SWIDTH 0 0
DWIDTH 10 0
BBX 11 13 -1 -1
BITMAP
0d80
0d80
0d80
0d80
7fe0
1b00
1b00
1b00
ffc0
3600
3600
3600
3600
ENDCHAR
STARTCHAR $
ENCODING -1 36
SWIDTH 0 0
DWIDTH 9 0
BBX 7 16 1 -3
BITMAP
1000
7c00
d600
d200
d000
f000
7000
3800
1c00
1e00
1600
9600
d600
7c00
1000
1000
ENDCHAR
STARTCHAR %
ENCODING -1 37
SWIDTH 0 0
DWIDTH 15 0
BBX 13 13 1 -1
BITMAP
7830
efe0
c440
c480
ed80
7b00
0200
06f0
0dd8
0988
1988
31d8
20f0
ENDCHAR
STARTCHAR &
ENCODING -1 38
SWIDTH 0 0
DWIDTH 14 0
BBX 12 13 1 -1
BITMAP
1c00
3200
3200
3200
3400
19e0
38c0
6d80
c700
c300
c780
ecc0
7870
ENDCHAR
STARTCHAR '
ENCODING -1 39
SWIDTH 0 0
DWIDTH 5 0
BBX 3 4 1 8
BITMAP
c000
e000
2000
4000
ENDCHAR
STARTCHAR (
ENCODING -1 40
SWIDTH 0 0
DWIDTH 7 0
BBX 5 17 1 -5
BITMAP
1800
3000
6000
6000
4000
c000
c000
c000
c000
c000
c000
c000
4000
6000
6000
3000
1800
ENDCHAR
STARTCHAR )
ENCODING -1 41
SWIDTH 0 0
DWIDTH 7 0
BBX 5 17 1 -5
BITMAP
c000
6000
3000
3000
1000
1800
1800
1800
1800
1800
1800
1800
1000
3000
3000
6000
c000
ENDCHAR
STARTCHAR *
ENCODING -1 42
SWIDTH 0 0
DWIDTH 9 0
BBX 7 7 1 5
BITMAP
1000
d600
7c00
3800
7c00
d600
1000
ENDCHAR
STARTCHAR +
ENCODING -1 43
SWIDTH 0 0
DWIDTH 10 0
BBX 7 7 1 2
BITMAP
1000
1000
1000
fe00
1000
1000
1000
ENDCHAR
STARTCHAR ,
ENCODING -1 44
SWIDTH 0 0
DWIDTH 4 0
BBX 3 5 0 -4
BITMAP
6000
6000
2000
6000
c000
ENDCHAR
STARTCHAR -
ENCODING -1 45
SWIDTH 0 0
DWIDTH 8 0
BBX 6 1 1 5
BITMAP
fc00
ENDCHAR
STARTCHAR .
ENCODING -1 46
SWIDTH 0 0
DWIDTH 4 0
BBX 2 2 1 -1
BITMAP
c000
c000
ENDCHAR
STARTCHAR /
ENCODING -1 47
SWIDTH 0 0
DWIDTH 5 0
BBX 5 13 0 -1
BITMAP
0800
0800
1800
1000
3000
3000
2000
6000
6000
4000
c000
8000
8000
ENDCHAR
STARTCHAR 0
ENCODING -1 48
SWIDTH 0 0
DWIDTH 9 0
BBX 8 13 0 -1
BITMAP
3c00
6600
6600
c300
c300
c300
c300
c300
c300
c300
6600
6600
3c00
ENDCHAR
STARTCHAR 1
ENCODING -1 49
SWIDTH 0 0
DWIDTH 8 0
BBX 6 13 1 -1
BITMAP
3000
3000
f000
3000
3000
3000
3000
3000
3000
3000
3000
3000
fc00
ENDCHAR
STARTCHAR 2
ENCODING -1 50
SWIDTH 0 0
DWIDTH 10 0
BBX 9 13 0 -1
BITMAP
3e00
6700
4300
0300
0300
0700
0600
0c00
1800
3000
6080
ff80
ff00
ENDCHAR
STARTCHAR 3
ENCODING -1 51
SWIDTH 0 0
DWIDTH 9 0
BBX 7 13 1 -1
BITMAP
7c00
ce00
8600
0600
0c00
3800
1c00
0e00
0600
0600
c600
cc00
7800
ENDCHAR
STARTCHAR 4
ENCODING -1 52
SWIDTH 0 0
DWIDTH 9 0
BBX 8 13 0 -1
BITMAP
0600
0e00
0e00
1600
3600
2600
4600
c600
ff00
ff00
0600
0600
0600
ENDCHAR
STARTCHAR 5
ENCODING -1 53
SWIDTH 0 0
DWIDTH 9 0
BBX 7 13 1 -1
BITMAP
7e00
7c00
4000
4000
f800
fc00
0e00
0600
0600
0600
0600
cc00
f800
ENDCHAR
STARTCHAR 6
ENCODING -1 54
SWIDTH 0 0
DWIDTH 9 0
BBX 8 13 0 -1
BITMAP
0700
1c00
3000
6000
6000
dc00
e600
c300
c300
c300
c300
6600
3c00
ENDCHAR
STARTCHAR 7
ENCODING -1 55
SWIDTH 0 0
DWIDTH 9 0
BBX 7 13 1 -1
BITMAP
fe00
fe00
8400
0c00
0800
1800
1800
1000
3000
3000
2000
6000
6000
ENDCHAR
STARTCHAR 8
ENCODING -1 56
SWIDTH 0 0
DWIDTH 9 0
BBX 8 13 0 -1
BITMAP
3c00
6600
c300
c300
e600
7c00
3c00
6e00
c700
c300
c300
6600
3c00
ENDCHAR
STARTCHAR 9
ENCODING -1 57
SWIDTH 0 0
DWIDTH 9 0
BBX 8 13 0 -1
BITMAP
3c00
6600
c300
c300
c300
c300
c300
6700
3e00
0600
0c00
3800
e000
ENDCHAR
STARTCHAR :
ENCODING -1 58
SWIDTH 0 0
DWIDTH 4 0
BBX 2 9 1 -1
BITMAP
c000
c000
0000
0000
0000
0000
0000
c000
c000
ENDCHAR
STARTCHAR ;
ENCODING -1 59
SWIDTH 0 0
DWIDTH 4 0
BBX 3 12 0 -4
BITMAP
6000
6000
0000
0000
0000
0000
0000
6000
6000
2000
6000
c000
ENDCHAR
STARTCHAR <
ENCODING -1 60
SWIDTH 0 0
DWIDTH 11 0
BBX 9 9 1 -1
BITMAP
0180
0700
1c00
7000
c000
7000
1c00
0700
0180
ENDCHAR
STARTCHAR =
ENCODING -1 61
SWIDTH 0 0
DWIDTH 11 0
BBX 8 4 1 2
BITMAP
7f00
0000
0000
7f00
ENDCHAR
STARTCHAR >
ENCODING -1 62
SWIDTH 0 0
DWIDTH 11 0
BBX 9 9 1 -1
BITMAP
c000
7000
1c00
0700
0180
0700
1c00
7000
c000
ENDCHAR
STARTCHAR ?
ENCODING -1 63
SWIDTH 0 0
DWIDTH 8 0
BBX 6 13 1 -1
BITMAP
7800
9c00
cc00
cc00
0c00
1800
1800
3000
2000
2000
0000
3000
3000
ENDCHAR
STARTCHAR @
ENCODING -1 64
SWIDTH 0 0
DWIDTH 17 0
BBX 14 16 1 -4
BITMAP
03e0
0e38
3808
301c
63e4
6664
c664
cc64
cccc
ccc8
cdd8
6770
6000
3000
1c30
07e0
ENDCHAR
STARTCHAR A
ENCODING -1 65
SWIDTH 0 0
DWIDTH 15 0
BBX 13 13 1 -1
BITMAP
0300
0300
0700
0580
0d80
0980
18c0
10c0
1fc0
3060
2060
6070
f0f8
ENDCHAR
STARTCHAR B
ENCODING -1 66
SWIDTH 0 0
DWIDTH 12 0
BBX 10 13 1 -1
BITMAP
fe00
6300
6180
6180
6180
6300
7f80
61c0
60c0
60c0
60c0
6180
ff00
ENDCHAR
STARTCHAR C
ENCODING -1 67
SWIDTH 0 0
DWIDTH 13 0
BBX 11 13 1 -1
BITMAP
0f20
38e0
6060
6020
c000
c000
c000
c000
c000
6020
6060
38c0
0f00
ENDCHAR
STARTCHAR D
ENCODING -1 68
SWIDTH 0 0
DWIDTH 13 0
BBX 11 13 1 -1
BITMAP
fe00
6380
60c0
60c0
6060
6060
6060
6060
6060
60c0
60c0
6380
fe00
ENDCHAR
STARTCHAR E
ENCODING -1 69
SWIDTH 0 0
DWIDTH 11 0
BBX 9 13 1 -1
BITMAP
ff80
6180
6080
6000
6000
6200
7e00
6200
6000
6000
6080
6180
ff80
ENDCHAR
STARTCHAR F
ENCODING -1 70
SWIDTH 0 0
DWIDTH 11 0
BBX 9 13 1 -1
BITMAP
ff80
6180
6080
6000
6000
6200
7e00
6200
6000
6000
6000
6000
f000
ENDCHAR
STARTCHAR G
ENCODING -1 71
SWIDTH 0 0
DWIDTH 14 0
BBX 12 13 1 -1
BITMAP
0f20
38e0
6060
6020
c000
c000
c0f0
c060
c060
6060
6060
38e0
0f80
ENDCHAR
STARTCHAR H
ENCODING -1 72
SWIDTH 0 0
DWIDTH 13 0
BBX 11 13 1 -1
BITMAP
f1e0
60c0
60c0
60c0
60c0
60c0
7fc0
60c0
60c0
60c0
60c0
60c0
f1e0
ENDCHAR
STARTCHAR I
ENCODING -1 73
SWIDTH 0 0
DWIDTH 6 0
BBX 4 13 1 -1
BITMAP
f000
6000
6000
6000
6000
6000
6000
6000
6000
6000
6000
6000
f000
ENDCHAR
STARTCHAR J
ENCODING -1 74
SWIDTH 0 0
DWIDTH 7 0
BBX 6 13 0 -1
BITMAP
3c00
1800
1800
1800
1800
1800
1800
1800
1800
1800
d800
d800
7000
ENDCHAR
STARTCHAR K
ENCODING -1 75
SWIDTH 0 0
DWIDTH 13 0
BBX 11 13 1 -1
BITMAP
f3c0
6180
6300
6600
6c00
7800
7800
7c00
6e00
6700
6380
61c0
f3e0
ENDCHAR
STARTCHAR L
ENCODING -1 76
SWIDTH 0 0
DWIDTH 12 0
BBX 10 13 1 -1
BITMAP
f000
6000
6000
6000
6000
6000
6000
6000
6000
6000
6040
60c0
ffc0
ENDCHAR
STARTCHAR M
ENCODING -1 77
SWIDTH 0 0
DWIDTH 16 0
BBX 14 13 1 -1
BITMAP
f01c
7038
7038
7878
5858
58d8
4c98
4d98
4d18
4718
4718
4218
e23c
ENDCHAR
STARTCHAR N
ENCODING -1 78
SWIDTH 0 0
DWIDTH 13 0
BBX 11 13 1 -1
BITMAP
e0e0
7040
7040
5840
5c40
4c40
4640
4740
4340
41c0
41c0
40c0
e040
ENDCHAR
STARTCHAR O
ENCODING -1 79
SWIDTH 0 0
DWIDTH 14 0
BBX 12 13 1 -1
BITMAP
0f00
39c0
6060
6060
c030
c030
c030
c030
c030
6060
6060
39c0
0f00
ENDCHAR
STARTCHAR P
ENCODING -1 80
SWIDTH 0 0
DWIDTH 11 0
BBX 9 13 1 -1
BITMAP
ff00
6380
6180
6180
6180
6300
7e00
6000
6000
6000
6000
6000
f000
ENDCHAR
STARTCHAR Q
ENCODING -1 81
SWIDTH 0 0
DWIDTH 14 0
BBX 12 17 1 -5
BITMAP
0f00
39c0
6060
6060
c030
c030
c030
c030
c030
6060
6060
39c0
0f00
0600
0300
01c0
0070
ENDCHAR
STARTCHAR R
ENCODING -1 82
SWIDTH 0 0
DWIDTH 13 0
BBX 11 13 1 -1
BITMAP
fe00
6300
6180
6180
6180
6300
7e00
6c00
6600
6300
6180
60c0
f0e0
ENDCHAR
STARTCHAR S
ENCODING -1 83
SWIDTH 0 0
DWIDTH 10 0
BBX 8 13 1 -1
BITMAP
7a00
e600
c200
e000
7000
3800
1c00
0e00
0700
8300
8300
c600
bc00
ENDCHAR
STARTCHAR T
ENCODING -1 84
SWIDTH 0 0
DWIDTH 12 0
BBX 10 13 1 -1
BITMAP
ffc0
ccc0
8c40
0c00
0c00
0c00
0c00
0c00
0c00
0c00
0c00
0c00
1e00
ENDCHAR
STARTCHAR U
ENCODING -1 85
SWIDTH 0 0
DWIDTH 13 0
BBX 11 13 1 -1
BITMAP
f0e0
6040
6040
6040
6040
6040
6040
6040
6040
6040
30c0
3980
0f00
ENDCHAR
STARTCHAR V
ENCODING -1 86
SWIDTH 0 0
DWIDTH 13 0
BBX 13 13 0 -1
BITMAP
f878
7030
3020
3820
1860
1840
1c40
0cc0
0e80
0680
0780
0300
0300
ENDCHAR
STARTCHAR W
ENCODING -1 87
SWIDTH 0 0
DWIDTH 18 0
BBX 18 13 0 -1
BITMAP
f9e3c000
70c18000
30c10000
38c10000
18630000
18620000
1c620000
0ce60000
0eb40000
06b40000
07bc0000
03180000
03180000
ENDCHAR
STARTCHAR X
ENCODING -1 88
SWIDTH 0 0
DWIDTH 13 0
BBX 12 13 0 -1
BITMAP
f870
7060
30c0
1880
1d80
0f00
0600
0f00
1b80
1180
30c0
60e0
e1f0
ENDCHAR
STARTCHAR Y
ENCODING -1 89
SWIDTH 0 0
DWIDTH 12 0
BBX 12 13 0 -1
BITMAP
f8f0
7060
38c0
1880
0d80
0f00
0600
0600
0600
0600
0600
0600
0f00
ENDCHAR
STARTCHAR Z
ENCODING -1 90
SWIDTH 0 0
DWIDTH 12 0
BBX 10 13 1 -1
BITMAP
7fc0
61c0
4180
0380
0700
0600
0e00
1c00
3800
3000
7040
e0c0
ffc0
ENDCHAR
STARTCHAR [
ENCODING -1 91
SWIDTH 0 0
DWIDTH 6 0
BBX 4 16 2 -4
BITMAP
f000
c000
c000
c000
c000
c000
c000
c000
c000
c000
c000
c000
c000
c000
c000
f000
ENDCHAR
STARTCHAR \
ENCODING -1 92
SWIDTH 0 0
DWIDTH 5 0
BBX 5 13 0 -1
BITMAP
8000
8000
c000
4000
6000
6000
2000
3000
3000
1000
1800
0800
0800
ENDCHAR
STARTCHAR ]
ENCODING -1 93
SWIDTH 0 0
DWIDTH 6 0
BBX 4 16 0 -4
BITMAP
f000
3000
3000
3000
3000
3000
3000
3000
3000
3000
3000
3000
3000
3000
3000
f000
ENDCHAR
STARTCHAR ^
ENCODING -1 94
SWIDTH 0 0
DWIDTH 9 0
BBX 7 7 1 5
BITMAP
1000
3800
2800
6c00
4400
c600
8200
ENDCHAR
STARTCHAR _
ENCODING -1 95
SWIDTH 0 0
DWIDTH 9 0
BBX 9 1 0 -5
BITMAP
ff80
ENDCHAR
STARTCHAR `
ENCODING -1 96
SWIDTH 0 0
DWIDTH 5 0
BBX 3 4 1 8
BITMAP
4000
8000
e000
6000
ENDCHAR
STARTCHAR a
ENCODING -1 97
SWIDTH 0 0
DWIDTH 9 0
BBX 7 9 1 -1
BITMAP
7800
cc00
cc00
1c00
6c00
cc00
cc00
fc00
6600
ENDCHAR
STARTCHAR b
ENCODING -1 98
SWIDTH 0 0
DWIDTH 9 0
BBX 8 13 0 -1
BITMAP
e000
6000
6000
6000
6e00
7700
6300
6300
6300
6300
6300
7600
6c00
ENDCHAR
STARTCHAR c
ENCODING -1 99
SWIDTH 0 0
DWIDTH 8 0
BBX 7 9 0 -1
BITMAP
3c00
6600
c600
c000
c000
c000
c200
6600
3c00
ENDCHAR
STARTCHAR d
ENCODING -1 100
SWIDTH 0 0
DWIDTH 9 0
BBX 8 13 0 -1
BITMAP
0e00
0600
0600
0600
3600
6e00
c600
c600
c600
c600
c600
6e00
3700
ENDCHAR
STARTCHAR e
ENCODING -1 101
SWIDTH 0 0
DWIDTH 8 0
BBX 7 9 0 -1
BITMAP
3c00
6e00
c600
fe00
c000
c000
c200
6600
3c00
ENDCHAR
STARTCHAR f
ENCODING -1 102
SWIDTH 0 0
DWIDTH 6 0
BBX 6 13 0 -1
BITMAP
1c00
3400
6000
6000
f800
6000
6000
6000
6000
6000
6000
6000
f000
ENDCHAR
STARTCHAR g
ENCODING -1 103
SWIDTH 0 0
DWIDTH 9 0
BBX 8 13 0 -5
BITMAP
7f00
cc00
c600
c600
e400
7800
4000
7e00
7f00
c300
c300
e600
7c00
ENDCHAR
STARTCHAR h
ENCODING -1 104
SWIDTH 0 0
DWIDTH 10 0
BBX 9 13 0 -1
BITMAP
e000
6000
6000
6000
6600
6f00
7300
6300
6300
6300
6300
6300
f780
ENDCHAR
STARTCHAR i
ENCODING -1 105
SWIDTH 0 0
DWIDTH 5 0
BBX 4 13 0 -1
BITMAP
6000
6000
0000
0000
e000
6000
6000
6000
6000
6000
6000
6000
f000
ENDCHAR
STARTCHAR j
ENCODING -1 106
SWIDTH 0 0
DWIDTH 5 0
BBX 4 17 -1 -5
BITMAP
3000
3000
0000
0000
7000
3000
3000
3000
3000
3000
3000
3000
3000
3000
3000
6000
c000
ENDCHAR
STARTCHAR k
ENCODING -1 107
SWIDTH 0 0
DWIDTH 9 0
BBX 9 13 0 -1
BITMAP
e000
6000
6000
6000
6700
6200
6400
6800
7800
6c00
6600
6300
f380
ENDCHAR
STARTCHAR l
ENCODING -1 108
SWIDTH 0 0
DWIDTH 5 0
BBX 4 13 0 -1
BITMAP
e000
6000
6000
6000
6000
6000
6000
6000
6000
6000
6000
6000
f000
ENDCHAR
STARTCHAR m
ENCODING -1 109
SWIDTH 0 0
DWIDTH 15 0
BBX 14 9 0 -1
BITMAP
e630
6f78
7398
6318
6318
6318
6318
6318
f7bc
ENDCHAR
STARTCHAR n
ENCODING -1 110
SWIDTH 0 0
DWIDTH 10 0
BBX 9 9 0 -1
BITMAP
e600
6f00
7300
6300
6300
6300
6300
6300
f780
ENDCHAR
STARTCHAR o
ENCODING -1 111
SWIDTH 0 0
DWIDTH 9 0
BBX 8 9 0 -1
BITMAP
3c00
6600
c300
c300
c300
c300
c300
6600
3c00
ENDCHAR
STARTCHAR p
ENCODING -1 112
SWIDTH 0 0
DWIDTH 9 0
BBX 8 13 0 -5
BITMAP
ee00
7700
6300
6300
6300
6300
6300
7600
7c00
6000
6000
6000
f000
ENDCHAR
STARTCHAR q
ENCODING -1 113
SWIDTH 0 0
DWIDTH 9 0
BBX 8 13 0 -5
BITMAP
3e00
6600
c600
c600
c600
c600
c600
6e00
3600
0600
0600
0600
0f00
ENDCHAR
STARTCHAR r
ENCODING -1 114
SWIDTH 0 0
DWIDTH 7 0
BBX 6 9 0 -1
BITMAP
ec00
6c00
7000
6000
6000
6000
6000
6000
f000
ENDCHAR
STARTCHAR s
ENCODING -1 115
SWIDTH 0 0
DWIDTH 7 0
BBX 6 9 0 -1
BITMAP
7400
cc00
e400
7000
3800
1c00
8c00
cc00
b800
ENDCHAR
STARTCHAR t
ENCODING -1 116
SWIDTH 0 0
DWIDTH 7 0
BBX 6 11 0 -1
BITMAP
2000
6000
f800
6000
6000
6000
6000
6000
6000
7400
3800
ENDCHAR
STARTCHAR u
ENCODING -1 117
SWIDTH 0 0
DWIDTH 10 0
BBX 9 9 0 -1
BITMAP
e700
6300
6300
6300
6300
6300
6300
7700
3b80
ENDCHAR
STARTCHAR v
ENCODING -1 118
SWIDTH 0 0
DWIDTH 10 0
BBX 9 9 0 -1
BITMAP
f380
6100
6300
3200
3600
1400
1c00
0800
0800
ENDCHAR
STARTCHAR w
ENCODING -1 119
SWIDTH 0 0
DWIDTH 14 0
BBX 13 9 0 -1
BITMAP
ef78
6630
6630
3360
3760
1d40
1dc0
0880
0880
ENDCHAR
STARTCHAR x
ENCODING -1 120
SWIDTH 0 0
DWIDTH 10 0
BBX 9 9 0 -1
BITMAP
e180
6300
3600
1c00
1c00
1c00
3600
6300
c380
ENDCHAR
STARTCHAR y
ENCODING -1 121
SWIDTH 0 0
DWIDTH 11 0
BBX 10 13 0 -5
BITMAP
f3c0
6180
6100
3300
3200
1e00
1c00
0c00
0800
1800
1000
f000
e000
ENDCHAR
STARTCHAR z
ENCODING -1 122
SWIDTH 0 0
DWIDTH 8 0
BBX 7 9 0 -1
BITMAP
fe00
c600
8e00
1c00
3800
7000
e200
c600
fe00
ENDCHAR
STARTCHAR {
ENCODING -1 123
SWIDTH 0 0
DWIDTH 9 0
BBX 7 17 1 -5
BITMAP
0e00
1800
3000
3000
3000
3000
3000
6000
c000
6000
3000
3000
3000
3000
3000
1800
0e00
ENDCHAR
STARTCHAR |
ENCODING -1 124
SWIDTH 0 0
DWIDTH 3 0
BBX 1 17 1 -5
BITMAP
8000
8000
8000
8000
8000
8000
8000
8000
8000
8000
8000
8000
8000
8000
8000
8000
8000
ENDCHAR
STARTCHAR }
ENCODING -1 125
SWIDTH 0 0
DWIDTH 9 0
BBX 7 17 1 -5
BITMAP
e000
3000
1800
1800
1800
1800
1800
0c00
0600
0c00
1800
1800
1800
1800
1800
3000
e000
ENDCHAR
STARTCHAR ~
ENCODING -1 126
SWIDTH 0 0
DWIDTH 11 0
BBX 9 2 1 3
BITMAP
7980
cf00
ENDCHAR
ENDFONT
